<svg width="33" height="33" viewBox="0 0 33 33" fill="none" xmlns="http://www.w3.org/2000/svg">
<path d="M16.002 2.49044C14.7449 2.49044 13.5358 2.65205 12.3746 2.97528C11.2133 3.29852 10.1179 3.75942 9.08837 4.358C8.05882 4.95658 7.13701 5.66889 6.32294 6.49493C5.50887 7.32096 4.79657 8.24876 4.18602 9.27831C3.57547 10.3079 3.11456 11.3973 2.8033 12.5466C2.49204 13.6958 2.32444 14.9109 2.30049 16.1919C2.30049 17.4489 2.46211 18.658 2.78534 19.8193C3.10858 20.9805 3.56948 22.0759 4.16806 23.1055C4.76664 24.135 5.47895 25.0568 6.30498 25.8709C7.13102 26.685 8.05882 27.3973 9.08837 28.0078C10.1179 28.6184 11.2073 29.0793 12.3566 29.3905C13.5059 29.7018 14.721 29.8694 16.002 29.8934C17.259 29.8934 18.4681 29.7317 19.6293 29.4085C20.7906 29.0853 21.886 28.6244 22.9155 28.0258C23.9451 27.4272 24.8669 26.7149 25.681 25.8889C26.495 25.0628 27.2073 24.135 27.8179 23.1055C28.4284 22.0759 28.8893 20.9865 29.2006 19.8372C29.5119 18.688 29.6795 17.4729 29.7034 16.1919C29.7034 14.9349 29.5418 13.7258 29.2186 12.5645C28.8953 11.4033 28.4344 10.3139 27.8358 9.29627C27.2373 8.27869 26.519 7.35089 25.681 6.51288C24.843 5.67487 23.9211 4.96256 22.9155 4.37596C21.9099 3.78935 20.8205 3.32845 19.6473 2.99324C18.4741 2.65804 17.259 2.49044 16.002 2.49044ZM16.002 0.191895C17.4745 0.191895 18.8871 0.38344 20.2399 0.76653C21.5927 1.14962 22.8676 1.68834 24.0648 2.38269C25.262 3.07704 26.3394 3.90907 27.2971 4.87876C28.2549 5.84846 29.0929 6.93189 29.8112 8.12904C30.5295 9.3262 31.0682 10.5952 31.4273 11.936C31.7865 13.2768 31.978 14.6954 32.002 16.1919C32.002 17.6644 31.8104 19.077 31.4273 20.4298C31.0442 21.7826 30.5055 23.0576 29.8112 24.2547C29.1168 25.4519 28.2848 26.5293 27.3151 27.4871C26.3454 28.4448 25.262 29.2828 24.0648 30.0011C22.8676 30.7194 21.5987 31.2581 20.2578 31.6173C18.917 31.9764 17.4984 32.168 16.002 32.1919C14.5295 32.1919 13.1168 32.0004 11.764 31.6173C10.4112 31.2342 9.13626 30.6954 7.9391 30.0011C6.74195 29.3067 5.66451 28.4747 4.70678 27.505C3.74905 26.5353 2.91104 25.4519 2.19275 24.2547C1.47446 23.0576 0.935735 21.7886 0.576588 20.4478C0.217441 19.107 0.0258963 17.6883 0.00195312 16.1919C0.00195312 14.7194 0.193498 13.3067 0.576588 11.954C0.959679 10.6012 1.4984 9.3262 2.19275 8.12904C2.8871 6.93189 3.71913 5.85445 4.68882 4.89672C5.65852 3.939 6.74195 3.10099 7.9391 2.38269C9.13626 1.6644 10.4052 1.12568 11.7461 0.76653C13.0869 0.407383 14.5055 0.215838 16.002 0.191895ZM14.4217 24.56L12.8055 22.9439L19.4498 16.2817L12.8055 9.6195L14.4217 8.00334L22.7 16.2817L14.4217 24.56Z" fill="#A100FF"/>
</svg>
