<svg width="32" height="33" viewBox="0 0 32 33" fill="none" xmlns="http://www.w3.org/2000/svg">
<path d="M16 29.8934C17.257 29.8934 18.4661 29.7317 19.6274 29.4085C20.7886 29.0853 21.884 28.6244 22.9136 28.0258C23.9431 27.4272 24.8649 26.7149 25.679 25.8889C26.4931 25.0628 27.2054 24.135 27.8159 23.1055C28.4265 22.0759 28.8874 20.9865 29.1987 19.8372C29.5099 18.688 29.6775 17.4729 29.7015 16.1919C29.7015 14.9349 29.5398 13.7257 29.2166 12.5645C28.8934 11.4033 28.4325 10.3079 27.8339 9.27831C27.2353 8.24876 26.523 7.32695 25.697 6.51288C24.8709 5.69881 23.9431 4.9865 22.9136 4.37595C21.884 3.7654 20.7946 3.3045 19.6453 2.99324C18.4961 2.68198 17.281 2.51438 16 2.49043C14.743 2.49043 13.5339 2.65205 12.3726 2.97528C11.2114 3.29851 10.116 3.75942 9.08642 4.358C8.05687 4.95658 7.13506 5.66888 6.32099 6.49492C5.50692 7.32096 4.79461 8.24876 4.18406 9.27831C3.57351 10.3079 3.11261 11.3973 2.80135 12.5465C2.49009 13.6958 2.32248 14.9109 2.29854 16.1919C2.29854 17.4489 2.46016 18.658 2.78339 19.8193C3.10662 20.9805 3.56753 22.0699 4.1661 23.0875C4.76468 24.1051 5.48298 25.0329 6.32099 25.8709C7.159 26.7089 8.08081 27.4212 9.08642 28.0078C10.092 28.5944 11.1814 29.0553 12.3547 29.3905C13.5279 29.7257 14.743 29.8934 16 29.8934ZM16 32.1919C14.5275 32.1919 13.1149 32.0003 11.7621 31.6173C10.4093 31.2342 9.1343 30.6954 7.93715 30.0011C6.73999 29.3067 5.66255 28.4747 4.70482 27.505C3.7471 26.5353 2.90909 25.4519 2.1908 24.2547C1.4725 23.0576 0.933782 21.7886 0.574636 20.4478C0.215488 19.107 0.0239423 17.6883 1.39876e-06 16.1919C1.52749e-06 14.7194 0.191545 13.3067 0.574636 11.954C0.957726 10.6012 1.49645 9.3262 2.1908 8.12904C2.88515 6.93188 3.71717 5.85444 4.68687 4.89672C5.65657 3.93899 6.73999 3.10098 7.93715 2.38269C9.13431 1.66439 10.4033 1.12567 11.7441 0.766527C13.0849 0.407379 14.5036 0.215834 16 0.191893C17.4725 0.191893 18.8851 0.383437 20.2379 0.766528C21.5907 1.14962 22.8657 1.68834 24.0629 2.38269C25.26 3.07704 26.3375 3.90906 27.2952 4.87876C28.2529 5.84846 29.0909 6.93189 29.8092 8.12904C30.5275 9.3262 31.0662 10.5952 31.4254 11.936C31.7845 13.2768 31.9761 14.6954 32 16.1919C32 17.6644 31.8085 19.077 31.4254 20.4298C31.0423 21.7826 30.5036 23.0576 29.8092 24.2547C29.1149 25.4519 28.2828 26.5293 27.3131 27.4871C26.3434 28.4448 25.26 29.2828 24.0629 30.0011C22.8657 30.7194 21.5967 31.2581 20.2559 31.6173C18.9151 31.9764 17.4964 32.168 16 32.1919ZM17.5802 7.82377L19.1964 9.43993L12.5522 16.1021L19.1964 22.7643L17.5802 24.3804L9.30191 16.1021L17.5802 7.82377Z" fill="#A100FF"/>
</svg>
