<svg width="162" height="161" viewBox="0 0 162 161" fill="none" xmlns="http://www.w3.org/2000/svg">
<rect width="16" height="0" transform="translate(4 12.0496)" fill="white"/>
<path d="M4 12.0496H20" stroke="#A100FF" stroke-width="8" stroke-linecap="round"/>
<path d="M29.44 19.5496H30.768V9.74156L36.544 19.5496H38.144V8.10956H36.816V17.5656L31.248 8.10956H29.44V19.5496ZM42.4101 18.4136V9.22956H43.9621C47.1141 9.22956 48.3941 11.0856 48.3941 13.7256V13.8536C48.3941 16.6536 46.9221 18.4136 43.9781 18.4136H42.4101ZM41.0181 19.5496H44.0101C48.0101 19.5496 49.8341 17.0376 49.8341 13.8696V13.7256C49.8341 10.5416 47.9781 8.10956 44.0421 8.10956H41.0181V19.5496ZM50.6541 19.5496H51.9661L53.0701 16.2536H57.7901L58.9101 19.5496H60.2861L56.4141 8.10956H54.5901L50.6541 19.5496ZM55.4381 9.26156L57.4221 15.1496H53.4541L55.4381 9.26156Z" fill="#9FA2B4"/>
<path d="M4 46.0496H20" stroke="#B455AA" stroke-width="8" stroke-linecap="round"/>
<path d="M34.224 53.6936C36.784 53.6936 38.608 52.3976 39.008 49.7576H37.712C37.424 51.6136 36.128 52.5576 34.256 52.5576C31.792 52.5576 30.32 50.7976 30.32 47.8856V47.7576C30.32 44.8776 31.904 43.0376 34.272 43.0376C36.224 43.0376 37.232 43.9336 37.52 45.6776H38.896C38.656 43.1976 36.64 41.9336 34.256 41.9336C31.152 41.9336 28.88 44.3816 28.88 47.7736V47.9016C28.88 51.4216 30.912 53.6936 34.224 53.6936ZM43.567 53.5496H44.959V48.5736L48.575 42.1096H47.183L44.303 47.4216L41.311 42.1096H39.743L43.567 48.5576V53.5496ZM50.3775 53.5496H54.2975C56.5855 53.5496 58.0575 52.5096 58.0575 50.3496V50.2856C58.0575 48.7976 57.4335 47.9496 55.7695 47.5496C57.0815 47.1016 57.4975 46.1736 57.4975 45.1336V45.0696C57.4975 42.8136 55.9455 42.1096 53.8175 42.1096H50.3775V53.5496ZM51.7375 52.4616V48.1896H54.0735C55.9135 48.1896 56.6975 48.8616 56.6975 50.2696V50.3336C56.6975 51.7256 55.9295 52.4616 54.2655 52.4616H51.7375ZM51.7375 47.1016V43.1976H53.7855C55.3855 43.1976 56.1375 43.7256 56.1375 45.0216V45.0856C56.1375 46.4936 55.4975 47.1016 53.8175 47.1016H51.7375ZM60.3306 53.5496H67.2906V52.4136H61.7226V48.2696H65.9786V47.1336H61.7226V43.2456H67.0026V42.1096H60.3306V53.5496ZM69.3931 53.5496H70.7851V48.5736H72.5451L75.9531 53.5496H77.5051L74.0011 48.4776C75.5691 48.1736 76.8331 47.2456 76.8331 45.3576V45.2936C76.8331 43.0056 75.0251 42.1096 72.8331 42.1096H69.3931V53.5496ZM70.7851 47.4696V43.2296H72.9291C74.4811 43.2296 75.4411 43.7416 75.4411 45.2936V45.3576C75.4411 46.7656 74.5611 47.4696 72.9291 47.4696H70.7851ZM87.3704 53.6936C89.6424 53.6936 91.3224 52.2376 91.3224 50.3176C91.3224 48.1576 89.9784 47.3896 87.4344 46.9896C85.0984 46.6376 84.6824 46.0616 84.6824 44.9416C84.6824 43.8696 85.4984 43.0856 87.0664 43.0856C88.6504 43.0856 89.4824 43.6776 89.7544 45.1176H91.0024C90.7784 43.0856 89.3544 41.9656 87.0664 41.9656C84.9064 41.9656 83.3864 43.3096 83.3864 45.0696C83.3864 47.1016 84.8104 47.8536 87.2104 48.2216C89.3864 48.5736 89.9784 49.1176 89.9784 50.4136C89.9784 51.7096 88.8424 52.5736 87.3704 52.5736C85.0664 52.5736 84.5224 51.4216 84.3464 50.0616H83.0024C83.2104 52.0136 84.3144 53.6936 87.3704 53.6936ZM93.7056 53.5496H100.666V52.4136H95.0976V48.2696H99.3536V47.1336H95.0976V43.2456H100.378V42.1096H93.7056V53.5496ZM107.396 53.6936C109.956 53.6936 111.78 52.3976 112.18 49.7576H110.884C110.596 51.6136 109.3 52.5576 107.428 52.5576C104.964 52.5576 103.492 50.7976 103.492 47.8856V47.7576C103.492 44.8776 105.076 43.0376 107.444 43.0376C109.396 43.0376 110.404 43.9336 110.692 45.6776H112.068C111.828 43.1976 109.812 41.9336 107.428 41.9336C104.324 41.9336 102.052 44.3816 102.052 47.7736V47.9016C102.052 51.4216 104.084 53.6936 107.396 53.6936ZM118.315 53.6936C121.259 53.6936 122.651 51.9816 122.651 49.1976V42.1096H121.259V49.0056C121.259 51.8056 120.171 52.5416 118.347 52.5416C116.443 52.5416 115.595 51.6136 115.595 49.2136V42.1096H114.203V49.3736C114.203 52.1576 115.691 53.6936 118.315 53.6936ZM125.44 53.5496H126.832V48.5736H128.592L132 53.5496H133.552L130.048 48.4776C131.616 48.1736 132.88 47.2456 132.88 45.3576V45.2936C132.88 43.0056 131.072 42.1096 128.88 42.1096H125.44V53.5496ZM126.832 47.4696V43.2296H128.976C130.528 43.2296 131.488 43.7416 131.488 45.2936V45.3576C131.488 46.7656 130.608 47.4696 128.976 47.4696H126.832ZM135.567 53.5496H136.959V42.1096H135.567V53.5496ZM142.276 53.5496H143.668V43.2456H146.996V42.1096H138.948V43.2456H142.276V53.5496ZM151.801 53.5496H153.193V48.5736L156.809 42.1096H155.417L152.537 47.4216L149.545 42.1096H147.977L151.801 48.5576V53.5496Z" fill="#9FA2B4"/>
<path d="M4 80.0496H20" stroke="#A100FF" stroke-width="8" stroke-linecap="round"/>
<path d="M29.44 87.5496H36.064V86.4136H30.832V76.1096H29.44V87.5496ZM38.0025 87.5496H41.9225C44.2105 87.5496 45.6825 86.5096 45.6825 84.3496V84.2856C45.6825 82.7976 45.0585 81.9496 43.3945 81.5496C44.7065 81.1016 45.1225 80.1736 45.1225 79.1336V79.0696C45.1225 76.8136 43.5705 76.1096 41.4425 76.1096H38.0025V87.5496ZM39.3625 86.4616V82.1896H41.6985C43.5385 82.1896 44.3225 82.8616 44.3225 84.2696V84.3336C44.3225 85.7256 43.5545 86.4616 41.8905 86.4616H39.3625ZM39.3625 81.1016V77.1976H41.4105C43.0105 77.1976 43.7625 77.7256 43.7625 79.0216V79.0856C43.7625 80.4936 43.1225 81.1016 41.4425 81.1016H39.3625ZM46.9354 87.5496H48.2474L49.3514 84.2536H54.0714L55.1914 87.5496H56.5674L52.6954 76.1096H50.8714L46.9354 87.5496ZM51.7194 77.2616L53.7034 83.1496H49.7354L51.7194 77.2616Z" fill="#9FA2B4"/>
<path d="M4 114.05H20" stroke="#7500C0" stroke-width="8" stroke-linecap="round"/>
<path d="M29.44 121.55H33.36C35.648 121.55 37.12 120.51 37.12 118.35V118.286C37.12 116.798 36.496 115.95 34.832 115.55C36.144 115.102 36.56 114.174 36.56 113.134V113.07C36.56 110.814 35.008 110.11 32.88 110.11H29.44V121.55ZM30.8 120.462V116.19H33.136C34.976 116.19 35.76 116.862 35.76 118.27V118.334C35.76 119.726 34.992 120.462 33.328 120.462H30.8ZM30.8 115.102V111.198H32.848C34.448 111.198 35.2 111.726 35.2 113.022V113.086C35.2 114.494 34.56 115.102 32.88 115.102H30.8ZM39.3931 121.55H40.7851V116.462H46.8011V121.55H48.1931V110.11H46.8011V115.294H40.7851V110.11H39.3931V121.55ZM51.0806 121.55H52.4726V116.894H54.3286C56.5046 116.894 58.3286 115.95 58.3286 113.518V113.454C58.3286 111.07 56.5206 110.11 54.3286 110.11H51.0806V121.55ZM52.4726 115.79V111.23H54.4246C55.9766 111.23 56.9366 111.838 56.9366 113.454V113.518C56.9366 114.99 56.0566 115.79 54.4246 115.79H52.4726Z" fill="#9FA2B4"/>
<path d="M4 148.05H20" stroke="#DCAFFF" stroke-width="8" stroke-linecap="round"/>
<path d="M29.44 155.55H36.4V154.414H30.832V150.27H35.088V149.134H30.832V145.246H36.112V144.11H29.44V155.55ZM38.5025 155.55H39.8305V145.742L45.6065 155.55H47.2065V144.11H45.8785V153.566L40.3105 144.11H38.5025V155.55ZM50.0806 155.55H57.0406V154.414H51.4726V150.27H55.7286V149.134H51.4726V145.246H56.7526V144.11H50.0806V155.55ZM59.1431 155.55H65.7671V154.414H60.5351V144.11H59.1431V155.55Z" fill="#9FA2B4"/>
</svg>
