<svg width="25" height="24" viewBox="0 0 25 24" fill="none" xmlns="http://www.w3.org/2000/svg">
<path fill-rule="evenodd" clip-rule="evenodd" d="M21.5 3H3.5C3.10218 3 2.72064 3.15804 2.43934 3.43934C2.15804 3.72064 2 4.10218 2 4.5V21C2 21.3978 2.15804 21.7794 2.43934 22.0607C2.72064 22.342 3.10218 22.5 3.5 22.5H21.5C21.8978 22.5 22.2794 22.342 22.5607 22.0607C22.842 21.7794 23 21.3978 23 21V4.5C23 4.10218 22.842 3.72064 22.5607 3.43934C22.2794 3.15804 21.8978 3 21.5 3ZM3.5 1.5C2.70435 1.5 1.94129 1.81607 1.37868 2.37868C0.816071 2.94129 0.5 3.70435 0.5 4.5L0.5 21C0.5 21.7956 0.816071 22.5587 1.37868 23.1213C1.94129 23.6839 2.70435 24 3.5 24H21.5C22.2956 24 23.0587 23.6839 23.6213 23.1213C24.1839 22.5587 24.5 21.7956 24.5 21V4.5C24.5 3.70435 24.1839 2.94129 23.6213 2.37868C23.0587 1.81607 22.2956 1.5 21.5 1.5H3.5Z" fill="#A055F5"/>
<path fill-rule="evenodd" clip-rule="evenodd" d="M21.5 3H3.5C3.10218 3 2.72064 3.15804 2.43934 3.43934C2.15804 3.72064 2 4.10218 2 4.5V6H23V4.5C23 4.10218 22.842 3.72064 22.5607 3.43934C22.2794 3.15804 21.8978 3 21.5 3ZM3.5 1.5C2.70435 1.5 1.94129 1.81607 1.37868 2.37868C0.816071 2.94129 0.5 3.70435 0.5 4.5L0.5 7.5H24.5V4.5C24.5 3.70435 24.1839 2.94129 23.6213 2.37868C23.0587 1.81607 22.2956 1.5 21.5 1.5H3.5Z" fill="#A055F5"/>
<path fill-rule="evenodd" clip-rule="evenodd" d="M5.75 0C5.94891 0 6.13968 0.0790176 6.28033 0.21967C6.42098 0.360322 6.5 0.551088 6.5 0.75V1.5C6.5 1.69891 6.42098 1.88968 6.28033 2.03033C6.13968 2.17098 5.94891 2.25 5.75 2.25C5.55109 2.25 5.36032 2.17098 5.21967 2.03033C5.07902 1.88968 5 1.69891 5 1.5V0.75C5 0.551088 5.07902 0.360322 5.21967 0.21967C5.36032 0.0790176 5.55109 0 5.75 0V0ZM19.25 0C19.4489 0 19.6397 0.0790176 19.7803 0.21967C19.921 0.360322 20 0.551088 20 0.75V1.5C20 1.69891 19.921 1.88968 19.7803 2.03033C19.6397 2.17098 19.4489 2.25 19.25 2.25C19.0511 2.25 18.8603 2.17098 18.7197 2.03033C18.579 1.88968 18.5 1.69891 18.5 1.5V0.75C18.5 0.551088 18.579 0.360322 18.7197 0.21967C18.8603 0.0790176 19.0511 0 19.25 0V0Z" fill="#A055F5"/>
<path d="M17 11.25C17 11.0511 17.079 10.8603 17.2197 10.7197C17.3603 10.579 17.5511 10.5 17.75 10.5H19.25C19.4489 10.5 19.6397 10.579 19.7803 10.7197C19.921 10.8603 20 11.0511 20 11.25V12.75C20 12.9489 19.921 13.1397 19.7803 13.2803C19.6397 13.421 19.4489 13.5 19.25 13.5H17.75C17.5511 13.5 17.3603 13.421 17.2197 13.2803C17.079 13.1397 17 12.9489 17 12.75V11.25ZM12.5 11.25C12.5 11.0511 12.579 10.8603 12.7197 10.7197C12.8603 10.579 13.0511 10.5 13.25 10.5H14.75C14.9489 10.5 15.1397 10.579 15.2803 10.7197C15.421 10.8603 15.5 11.0511 15.5 11.25V12.75C15.5 12.9489 15.421 13.1397 15.2803 13.2803C15.1397 13.421 14.9489 13.5 14.75 13.5H13.25C13.0511 13.5 12.8603 13.421 12.7197 13.2803C12.579 13.1397 12.5 12.9489 12.5 12.75V11.25ZM9.5 15.75C9.5 15.5511 9.57902 15.3603 9.71967 15.2197C9.86032 15.079 10.0511 15 10.25 15H11.75C11.9489 15 12.1397 15.079 12.2803 15.2197C12.421 15.3603 12.5 15.5511 12.5 15.75V17.25C12.5 17.4489 12.421 17.6397 12.2803 17.7803C12.1397 17.921 11.9489 18 11.75 18H10.25C10.0511 18 9.86032 17.921 9.71967 17.7803C9.57902 17.6397 9.5 17.4489 9.5 17.25V15.75ZM5 15.75C5 15.5511 5.07902 15.3603 5.21967 15.2197C5.36032 15.079 5.55109 15 5.75 15H7.25C7.44891 15 7.63968 15.079 7.78033 15.2197C7.92098 15.3603 8 15.5511 8 15.75V17.25C8 17.4489 7.92098 17.6397 7.78033 17.7803C7.63968 17.921 7.44891 18 7.25 18H5.75C5.55109 18 5.36032 17.921 5.21967 17.7803C5.07902 17.6397 5 17.4489 5 17.25V15.75Z" fill="#A055F5"/>
</svg>
