<svg width="21" height="24" viewBox="0 0 21 24" fill="none" xmlns="http://www.w3.org/2000/svg">
<path d="M3.42857 0H12V1.71429H3.42857C2.97391 1.71429 2.53788 1.8949 2.21639 2.21639C1.8949 2.53788 1.71429 2.97391 1.71429 3.42857V20.5714C1.71429 21.0261 1.8949 21.4621 2.21639 21.7836C2.53788 22.1051 2.97391 22.2857 3.42857 22.2857H17.1429C17.5975 22.2857 18.0335 22.1051 18.355 21.7836C18.6765 21.4621 18.8571 21.0261 18.8571 20.5714V8.57143H20.5714V20.5714C20.5714 21.4807 20.2102 22.3528 19.5672 22.9958C18.9242 23.6388 18.0522 24 17.1429 24H3.42857C2.51926 24 1.64719 23.6388 1.00421 22.9958C0.361223 22.3528 0 21.4807 0 20.5714V3.42857C0 2.51926 0.361223 1.64719 1.00421 1.00421C1.64719 0.361224 2.51926 0 3.42857 0Z" fill="#9FA2B4"/>
<path d="M12 6V0L20.5714 8.57143H14.5714C13.8894 8.57143 13.2354 8.30051 12.7532 7.81827C12.2709 7.33604 12 6.68198 12 6Z" fill="#9FA2B4"/>
<path fill-rule="evenodd" clip-rule="evenodd" d="M6.24986 13.9645C6.32949 13.8846 6.42407 13.8213 6.52821 13.7781C6.63234 13.7349 6.74398 13.7126 6.85672 13.7126C6.96947 13.7126 7.0811 13.7349 7.18524 13.7781C7.28937 13.8213 7.38396 13.8846 7.46358 13.9645L10.2853 16.7879L13.107 13.9645C13.268 13.8035 13.4862 13.7131 13.7139 13.7131C13.9415 13.7131 14.1598 13.8035 14.3207 13.9645C14.4817 14.1254 14.5721 14.3437 14.5721 14.5713C14.5721 14.7989 14.4817 15.0172 14.3207 15.1782L10.8922 18.6067C10.8125 18.6866 10.7179 18.7499 10.6138 18.7931C10.5097 18.8363 10.398 18.8586 10.2853 18.8586C10.1725 18.8586 10.0609 18.8363 9.95678 18.7931C9.85264 18.7499 9.75806 18.6866 9.67844 18.6067L6.24986 15.1782C6.17004 15.0986 6.10671 15.004 6.0635 14.8998C6.02029 14.7957 5.99805 14.6841 5.99805 14.5713C5.99805 14.4586 6.02029 14.3469 6.0635 14.2428C6.10671 14.1387 6.17004 14.0441 6.24986 13.9645Z" fill="#9FA2B4"/>
<path fill-rule="evenodd" clip-rule="evenodd" d="M10.2859 8.57153C10.5132 8.57153 10.7312 8.66184 10.8919 8.82258C11.0527 8.98333 11.143 9.20135 11.143 9.42868V16.2858C11.143 16.5131 11.0527 16.7312 10.8919 16.8919C10.7312 17.0527 10.5132 17.143 10.2859 17.143C10.0585 17.143 9.84051 17.0527 9.67976 16.8919C9.51902 16.7312 9.42871 16.5131 9.42871 16.2858V9.42868C9.42871 9.20135 9.51902 8.98333 9.67976 8.82258C9.84051 8.66184 10.0585 8.57153 10.2859 8.57153Z" fill="#9FA2B4"/>
</svg>
