<svg width="22" height="13" viewBox="0 0 22 13" fill="none" xmlns="http://www.w3.org/2000/svg">
<path fill-rule="evenodd" clip-rule="evenodd" d="M7.35714 11.6429C7.35714 11.4155 7.44745 11.1975 7.60819 11.0368C7.76894 10.876 7.98696 10.7857 8.21429 10.7857H13.3571C13.5845 10.7857 13.8025 10.876 13.9632 11.0368C14.124 11.1975 14.2143 11.4155 14.2143 11.6429C14.2143 11.8702 14.124 12.0882 13.9632 12.2489C13.8025 12.4097 13.5845 12.5 13.3571 12.5H8.21429C7.98696 12.5 7.76894 12.4097 7.60819 12.2489C7.44745 12.0882 7.35714 11.8702 7.35714 11.6429ZM3.92857 6.5C3.92857 6.27267 4.01888 6.05465 4.17962 5.89391C4.34037 5.73316 4.55839 5.64286 4.78571 5.64286H16.7857C17.013 5.64286 17.2311 5.73316 17.3918 5.89391C17.5526 6.05465 17.6429 6.27267 17.6429 6.5C17.6429 6.72733 17.5526 6.94535 17.3918 7.10609C17.2311 7.26684 17.013 7.35714 16.7857 7.35714H4.78571C4.55839 7.35714 4.34037 7.26684 4.17962 7.10609C4.01888 6.94535 3.92857 6.72733 3.92857 6.5ZM0.5 1.35714C0.5 1.12981 0.590306 0.911797 0.751051 0.751051C0.911797 0.590306 1.12981 0.5 1.35714 0.5H20.2143C20.4416 0.5 20.6596 0.590306 20.8204 0.751051C20.9811 0.911797 21.0714 1.12981 21.0714 1.35714C21.0714 1.58447 20.9811 1.80249 20.8204 1.96323C20.6596 2.12398 20.4416 2.21429 20.2143 2.21429H1.35714C1.12981 2.21429 0.911797 2.12398 0.751051 1.96323C0.590306 1.80249 0.5 1.58447 0.5 1.35714Z" fill="#212121"/>
</svg>
