<svg width="16" height="17" viewBox="0 0 16 17" fill="none" xmlns="http://www.w3.org/2000/svg">
<path fill-rule="evenodd" clip-rule="evenodd" d="M10.4417 10.9422C10.5346 10.8492 10.6449 10.7755 10.7663 10.7252C10.8877 10.6748 11.0178 10.6489 11.1492 10.6489C11.2806 10.6489 11.4108 10.6748 11.5322 10.7252C11.6536 10.7755 11.7639 10.8492 11.8567 10.9422L15.7068 14.7923C15.8945 14.9798 15.9999 15.2342 16 15.4995C16.0001 15.7647 15.8948 16.0192 15.7073 16.2068C15.5198 16.3945 15.2654 16.4999 15.0002 16.5C14.7349 16.5001 14.4804 16.3948 14.2928 16.2073L10.4427 12.3572C10.3497 12.2644 10.276 12.1541 10.2256 12.0327C10.1753 11.9113 10.1494 11.7812 10.1494 11.6497C10.1494 11.5183 10.1753 11.3882 10.2256 11.2668C10.276 11.1454 10.3497 11.0351 10.4427 10.9422H10.4417Z" fill="#DFE0EB"/>
<path fill-rule="evenodd" clip-rule="evenodd" d="M6.50013 12.5002C7.22242 12.5002 7.93763 12.358 8.60494 12.0816C9.27224 11.8052 9.87857 11.4 10.3893 10.8893C10.9 10.3786 11.3052 9.77224 11.5816 9.10494C11.858 8.43763 12.0002 7.72242 12.0002 7.00013C12.0002 6.27785 11.858 5.56264 11.5816 4.89533C11.3052 4.22803 10.9 3.6217 10.3893 3.11097C9.87857 2.60023 9.27224 2.1951 8.60494 1.91869C7.93763 1.64229 7.22242 1.50002 6.50013 1.50002C5.04141 1.50002 3.64244 2.0795 2.61097 3.11097C1.5795 4.14244 1.00002 5.54141 1.00002 7.00013C1.00002 8.45885 1.5795 9.85783 2.61097 10.8893C3.64244 11.9208 5.04141 12.5002 6.50013 12.5002ZM13.0003 7.00013C13.0003 8.72408 12.3154 10.3774 11.0964 11.5964C9.87741 12.8154 8.22408 13.5003 6.50013 13.5003C4.77619 13.5003 3.12286 12.8154 1.90384 11.5964C0.684834 10.3774 0 8.72408 0 7.00013C0 5.27619 0.684834 3.62286 1.90384 2.40384C3.12286 1.18483 4.77619 0.5 6.50013 0.5C8.22408 0.5 9.87741 1.18483 11.0964 2.40384C12.3154 3.62286 13.0003 5.27619 13.0003 7.00013Z" fill="#DFE0EB"/>
</svg>
